<svg width="152" height="11" viewBox="0 0 152 11" fill="none" xmlns="http://www.w3.org/2000/svg">
<path d="M4.069 10.156C3.34967 10.156 2.652 10.0607 1.976 9.87C1.30867 9.67067 0.771333 9.415 0.364 9.103L1.079 7.517C1.469 7.803 1.93267 8.03267 2.47 8.206C3.00733 8.37933 3.54467 8.466 4.082 8.466C4.68 8.466 5.122 8.37933 5.408 8.206C5.694 8.024 5.837 7.78567 5.837 7.491C5.837 7.27433 5.75033 7.09667 5.577 6.958C5.41233 6.81067 5.19567 6.69367 4.927 6.607C4.667 6.52033 4.31167 6.425 3.861 6.321C3.16767 6.15633 2.6 5.99167 2.158 5.827C1.716 5.66233 1.33467 5.398 1.014 5.034C0.702 4.67 0.546 4.18467 0.546 3.578C0.546 3.04933 0.689 2.57267 0.975 2.148C1.261 1.71467 1.69 1.37233 2.262 1.121C2.84267 0.869666 3.549 0.744 4.381 0.744C4.96167 0.744 5.52933 0.813333 6.084 0.951999C6.63867 1.09067 7.124 1.29 7.54 1.55L6.89 3.149C6.04933 2.67233 5.20867 2.434 4.368 2.434C3.77867 2.434 3.341 2.52933 3.055 2.72C2.77767 2.91067 2.639 3.162 2.639 3.474C2.639 3.786 2.79933 4.02 3.12 4.176C3.44933 4.32333 3.94767 4.47067 4.615 4.618C5.30833 4.78267 5.876 4.94733 6.318 5.112C6.76 5.27667 7.137 5.53667 7.449 5.892C7.76967 6.24733 7.93 6.72833 7.93 7.335C7.93 7.855 7.78267 8.33167 7.488 8.765C7.202 9.18967 6.76867 9.52767 6.188 9.779C5.60733 10.0303 4.901 10.156 4.069 10.156ZM14.426 10.156C13.4814 10.156 12.6277 9.95233 11.865 9.545C11.111 9.13767 10.5174 8.57867 10.084 7.868C9.65937 7.14867 9.44704 6.34267 9.44704 5.45C9.44704 4.55733 9.65937 3.75567 10.084 3.045C10.5174 2.32567 11.111 1.76233 11.865 1.355C12.6277 0.947666 13.4814 0.744 14.426 0.744C15.3707 0.744 16.22 0.947666 16.974 1.355C17.728 1.76233 18.3217 2.32567 18.755 3.045C19.1884 3.75567 19.405 4.55733 19.405 5.45C19.405 6.34267 19.1884 7.14867 18.755 7.868C18.3217 8.57867 17.728 9.13767 16.974 9.545C16.22 9.95233 15.3707 10.156 14.426 10.156ZM14.426 8.362C14.9634 8.362 15.4487 8.24067 15.882 7.998C16.3154 7.74667 16.6534 7.4 16.896 6.958C17.1474 6.516 17.273 6.01333 17.273 5.45C17.273 4.88667 17.1474 4.384 16.896 3.942C16.6534 3.5 16.3154 3.15767 15.882 2.915C15.4487 2.66367 14.9634 2.538 14.426 2.538C13.8887 2.538 13.4034 2.66367 12.97 2.915C12.5367 3.15767 12.1944 3.5 11.943 3.942C11.7004 4.384 11.579 4.88667 11.579 5.45C11.579 6.01333 11.7004 6.516 11.943 6.958C12.1944 7.4 12.5367 7.74667 12.97 7.998C13.4034 8.24067 13.8887 8.362 14.426 8.362ZM23.7438 2.59V4.995H27.9558V6.685H23.7438V10H21.6378V0.899999H28.5148V2.59H23.7438ZM30.5905 0.899999H32.6965V10H30.5905V0.899999ZM37.3911 2.616H34.4791V0.899999H42.4091V2.616H39.4971V10H37.3911V2.616ZM55.5699 8.31V10H48.5239V0.899999H55.4009V2.59H50.6169V4.566H54.8419V6.204H50.6169V8.31H55.5699ZM66.5176 0.899999L62.5786 10H60.4986L56.5726 0.899999H58.8476L61.6166 7.4L64.4246 0.899999H66.5176ZM74.9734 8.31V10H67.9274V0.899999H74.8044V2.59H70.0204V4.566H74.2454V6.204H70.0204V8.31H74.9734ZM85.6451 0.899999V10H83.9161L79.3791 4.475V10H77.2991V0.899999H79.0411L83.5651 6.425V0.899999H85.6451ZM90.3331 2.616H87.4211V0.899999H95.3511V2.616H92.4391V10H90.3331V2.616ZM109.812 0.899999V10H107.706V6.269H103.572V10H101.466V0.899999H103.572V4.488H107.706V0.899999H109.812ZM117.022 10.156C116.077 10.156 115.224 9.95233 114.461 9.545C113.707 9.13767 113.113 8.57867 112.68 7.868C112.255 7.14867 112.043 6.34267 112.043 5.45C112.043 4.55733 112.255 3.75567 112.68 3.045C113.113 2.32567 113.707 1.76233 114.461 1.355C115.224 0.947666 116.077 0.744 117.022 0.744C117.967 0.744 118.816 0.947666 119.57 1.355C120.324 1.76233 120.918 2.32567 121.351 3.045C121.784 3.75567 122.001 4.55733 122.001 5.45C122.001 6.34267 121.784 7.14867 121.351 7.868C120.918 8.57867 120.324 9.13767 119.57 9.545C118.816 9.95233 117.967 10.156 117.022 10.156ZM117.022 8.362C117.559 8.362 118.045 8.24067 118.478 7.998C118.911 7.74667 119.249 7.4 119.492 6.958C119.743 6.516 119.869 6.01333 119.869 5.45C119.869 4.88667 119.743 4.384 119.492 3.942C119.249 3.5 118.911 3.15767 118.478 2.915C118.045 2.66367 117.559 2.538 117.022 2.538C116.485 2.538 115.999 2.66367 115.566 2.915C115.133 3.15767 114.79 3.5 114.539 3.942C114.296 4.384 114.175 4.88667 114.175 5.45C114.175 6.01333 114.296 6.516 114.539 6.958C114.79 7.4 115.133 7.74667 115.566 7.998C115.999 8.24067 116.485 8.362 117.022 8.362ZM128.277 10.156C126.977 10.156 125.963 9.79633 125.235 9.077C124.515 8.35767 124.156 7.33067 124.156 5.996V0.899999H126.262V5.918C126.262 7.54733 126.938 8.362 128.29 8.362C128.948 8.362 129.451 8.167 129.798 7.777C130.144 7.37833 130.318 6.75867 130.318 5.918V0.899999H132.398V5.996C132.398 7.33067 132.034 8.35767 131.306 9.077C130.586 9.79633 129.577 10.156 128.277 10.156ZM138.119 10.156C137.399 10.156 136.702 10.0607 136.026 9.87C135.358 9.67067 134.821 9.415 134.414 9.103L135.129 7.517C135.519 7.803 135.982 8.03267 136.52 8.206C137.057 8.37933 137.594 8.466 138.132 8.466C138.73 8.466 139.172 8.37933 139.458 8.206C139.744 8.024 139.887 7.78567 139.887 7.491C139.887 7.27433 139.8 7.09667 139.627 6.958C139.462 6.81067 139.245 6.69367 138.977 6.607C138.717 6.52033 138.361 6.425 137.911 6.321C137.217 6.15633 136.65 5.99167 136.208 5.827C135.766 5.66233 135.384 5.398 135.064 5.034C134.752 4.67 134.596 4.18467 134.596 3.578C134.596 3.04933 134.739 2.57267 135.025 2.148C135.311 1.71467 135.74 1.37233 136.312 1.121C136.892 0.869666 137.599 0.744 138.431 0.744C139.011 0.744 139.579 0.813333 140.134 0.951999C140.688 1.09067 141.174 1.29 141.59 1.55L140.94 3.149C140.099 2.67233 139.258 2.434 138.418 2.434C137.828 2.434 137.391 2.52933 137.105 2.72C136.827 2.91067 136.689 3.162 136.689 3.474C136.689 3.786 136.849 4.02 137.17 4.176C137.499 4.32333 137.997 4.47067 138.665 4.618C139.358 4.78267 139.926 4.94733 140.368 5.112C140.81 5.27667 141.187 5.53667 141.499 5.892C141.819 6.24733 141.98 6.72833 141.98 7.335C141.98 7.855 141.832 8.33167 141.538 8.765C141.252 9.18967 140.818 9.52767 140.238 9.779C139.657 10.0303 138.951 10.156 138.119 10.156ZM151.115 8.31V10H144.069V0.899999H150.946V2.59H146.162V4.566H150.387V6.204H146.162V8.31H151.115Z" fill="#D1A954"/>
</svg>
